# xmcd
#
# Track frame offsets:
#	150
#	17027
#	34565
#	48722
#	62367
#	77822
#	88725
#	102235
#	116747
#	130100
#	146927
#	158097
#	171402
#	182870
#	196395
#	210859
#	228230
#	241232
#	255062
#	270775
#
# Disc length: 3776 seconds
# Revision: 0
# Processed by: cddbd v1.5.2PL0 Copyright (c) Steve Scherf et al.
# Submitted via: dBpowerAMP V12.0
#
DISCID=040ebe14
DTITLE=Various Artist - Little Big Town Music Group: 7 Years Of Hits (1987-1994)
DYEAR=1994
DGENRE=Country
TTITLE0=Highway 101 - Just Say Yes
TTITLE1=The McCarters - The Gift
TTITLE2=Gene Watson - Don't Waste It On The Blues
TTITLE3=Shenandoah - The Church On Cumberland Road
TTITLE4=The Forester Sisters - Don't You
TTITLE5=Billy Hill - Too Much Month At The End Of The Money
TTITLE6=Waylon Jennings - Wrong
TTITLE7=Diamond Rio - Mirror, Mirror
TTITLE8=Highway 101 - Baby, I'm Missing You
TTITLE9=Pam Tillis - Blue Rose Is…
TTITLE10=Dennis Robbins - Home Sweet Home
TTITLE11=John Wesley Ryles - Life's A Dance
TTITLE12=Sammy Kershaw - Anywhere But Here
TTITLE13=John Anderson - Money In The Bank
TTITLE14=Pam Tillis - Cleopatra, Queen Of Denial
TTITLE15=Patty Loveless - Nothing But The Wheel
TTITLE16=Butch Baker - No Doubt About It
TTITLE17=Marty Stuart - Kiss Me, I'm Gone
TTITLE18=Kathy Mattea - Walking Away A Winner
TTITLE19=Ron Wallace - Wink
EXTD=
EXTT0=
EXTT1=
EXTT2=
EXTT3=
EXTT4=
EXTT5=
EXTT6=
EXTT7=
EXTT8=
EXTT9=
EXTT10=
EXTT11=
EXTT12=
EXTT13=
EXTT14=
EXTT15=
EXTT16=
EXTT17=
EXTT18=
EXTT19=
PLAYORDER=
